<?xml version="1.0" encoding="UTF-8"?>
<!DOCTYPE svg PUBLIC "-//W3C//DTD SVG 1.1//EN" "http://www.w3.org/Graphics/SVG/1.1/DTD/svg11.dtd">
<!-- Creator: CorelDRAW X8 -->
<svg xmlns="http://www.w3.org/2000/svg" xml:space="preserve" width="162.567mm" height="67.0731mm" version="1.1" style="shape-rendering:geometricPrecision; text-rendering:geometricPrecision; image-rendering:optimizeQuality; fill-rule:evenodd; clip-rule:evenodd"
viewBox="0 0 2351 970"
 xmlns:xlink="http://www.w3.org/1999/xlink">
 <defs>
  <style type="text/css">
   <![CDATA[
    .str3 {stroke:white;stroke-width:2.89193}
    .str1 {stroke:white;stroke-width:2.89193}
    .str2 {stroke:white;stroke-width:2.89193}
    .str4 {stroke:white;stroke-width:2.89193}
    .str0 {stroke:white;stroke-width:2.89193}
    .str5 {stroke:white;stroke-width:2.89193}
    .fil4 {fill:white}
    .fil2 {fill:white}
    .fil3 {fill:white}
    .fil5 {fill:white}
    .fil1 {fill:white}
    .fil0 {fill:transparent}
    .fil8 {fill:transparent}
    .fil6 {fill:white;fill-rule:nonzero}
    .fil7 {fill:white;fill-rule:nonzero}
   ]]>
  </style>
    <mask id="id0">
  <linearGradient id="id1" gradientUnits="userSpaceOnUse" x1="913.288" y1="-699.295" x2="812.508" y2="1173.63">
   <stop offset="0" style="stop-opacity:1; stop-color:white"/>
   <stop offset="0.278431" style="stop-opacity:-127.502; stop-color:white"/>
   <stop offset="1" style="stop-opacity:0; stop-color:white"/>
  </linearGradient>
     <rect style="fill:url(#id1)" y="4" width="2351" height="485"/>
    </mask>
 </defs>
 <g id="Camada_x0020_1">
  <metadata id="CorelCorpID_0Corel-Layer"/>
  <g id="_315570518832">
   <path class="fil0" d="M1 5l1510 16c535,-4 743,-3 836,-21l-7 970c-93,-9 -274,-4 -550,-10l-1789 -1 0 -954z"/>
   <polygon class="fil1 str0" points="496,304 496,304 2278,292 2164,311 "/>
   <polygon class="fil2 str1" points="303,97 635,101 486,319 161,315 "/>
   <polygon class="fil3 str2" points="1512,665 1840,604 1754,833 1418,897 "/>
   <polygon class="fil4 str3" points="1869,600 2189,546 2108,777 1781,832 "/>
   <polygon class="fil5 str4" points="1958,345 2278,292 2197,522 1869,578 "/>
   <path class="fil6" d="M362 581l-60 0 0 -66 -49 0 -33 66 -71 0 148 -230 66 -1 -1 231zm-58 -101l-2 -82 -42 82 44 0z"/>
   <path class="fil6" d="M381 509l45 -2c1,13 3,23 8,28 6,8 19,11 38,11 15,0 27,-2 33,-8 7,-5 11,-12 11,-19 0,-7 -3,-12 -9,-17 -4,-3 -15,-9 -32,-16 -18,-8 -31,-14 -39,-19 -9,-5 -15,-12 -20,-20 -4,-8 -7,-17 -7,-28 0,-19 7,-35 21,-47 14,-12 34,-19 61,-19 27,0 48,7 63,19 14,12 23,29 24,49l-45 2c-1,-11 -5,-19 -12,-25 -7,-5 -17,-8 -30,-8 -13,0 -23,2 -28,7 -6,4 -9,10 -9,17 0,6 3,11 8,15 5,5 17,11 34,18 26,11 43,20 50,27 11,10 17,23 17,39 0,20 -8,37 -24,51 -17,14 -39,21 -67,21 -20,0 -37,-3 -52,-10 -14,-6 -24,-15 -30,-27 -6,-11 -9,-24 -9,-39zm214 0l45 -2c1,13 3,23 8,28 7,8 19,11 38,11 15,0 27,-2 34,-8 6,-5 10,-12 10,-19 0,-7 -3,-12 -9,-17 -4,-3 -14,-9 -32,-16 -18,-8 -31,-14 -39,-19 -9,-5 -15,-12 -20,-20 -4,-8 -7,-17 -7,-28 0,-19 7,-35 21,-47 14,-12 35,-19 61,-19 27,0 48,7 63,19 15,12 23,29 24,49l-45 2c-1,-11 -5,-19 -12,-25 -7,-5 -17,-8 -30,-8 -13,0 -23,2 -28,7 -6,4 -8,10 -8,17 0,6 2,11 7,15 5,5 17,11 34,18 27,11 43,20 51,27 10,10 16,23 16,39 0,20 -8,37 -24,51 -16,14 -39,21 -67,21 -20,0 -37,-3 -52,-10 -14,-6 -24,-15 -30,-27 -6,-11 -9,-24 -9,-39z"/>
   <path class="fil7" d="M849 509l29 -2c0,14 2,23 5,28 4,8 12,12 24,12 10,0 18,-2 22,-8 4,-5 7,-12 7,-20 0,-6 -2,-12 -6,-17 -2,-3 -9,-9 -21,-16 -11,-8 -20,-15 -25,-20 -5,-5 -10,-12 -13,-20 -3,-8 -4,-18 -4,-29 0,-19 4,-35 13,-47 9,-13 23,-19 40,-19 17,0 31,6 40,18 10,13 15,30 16,51l-29 2c-1,-11 -4,-20 -8,-25 -4,-6 -11,-9 -19,-9 -9,0 -15,2 -19,7 -3,4 -5,10 -5,17 0,7 2,12 5,16 3,5 11,10 22,18 17,11 28,21 32,28 7,10 11,23 11,40 0,20 -5,37 -16,51 -10,14 -24,22 -43,22 -13,0 -24,-4 -33,-10 -9,-7 -16,-16 -20,-28 -4,-11 -5,-25 -5,-40zm138 5c0,-31 5,-55 16,-73 12,-19 26,-28 45,-28 15,0 28,7 37,20 8,14 13,32 13,55 0,27 -6,50 -17,69 -11,20 -26,30 -44,30 -10,0 -19,-4 -27,-10 -8,-6 -14,-15 -18,-26 -4,-12 -5,-24 -5,-37zm82 -32c0,-11 -2,-19 -6,-26 -4,-6 -9,-9 -15,-9 -7,0 -12,3 -17,9 -5,6 -9,14 -11,26 -3,11 -4,22 -4,31 0,12 2,22 6,29 4,7 9,10 16,10 8,0 14,-5 20,-16 7,-15 11,-33 11,-54zm114 -65l-4 33 -20 0 -18 132 -29 0 18 -132 -17 0 5 -33 16 0 2 -17c2,-13 4,-23 6,-28 2,-6 5,-12 10,-16 4,-3 10,-5 18,-5 8,0 18,2 27,7l-5 31c-7,-3 -13,-5 -17,-5 -3,0 -6,2 -7,5 -1,2 -2,8 -3,17l-2 11 20 0zm2 33l4 -33 15 0 3 -25 33 -31 -8 56 18 0 -4 33 -18 0 -9 70c-2,13 -3,20 -3,21 0,4 1,7 2,8 2,2 4,3 8,3 1,0 4,0 9,-1l-4 33c-5,2 -10,3 -16,3 -10,0 -17,-4 -22,-10 -4,-6 -7,-14 -7,-25 0,-5 2,-17 4,-35l9 -67 -14 0zm174 132l-28 0 -5 -105 -32 105 -27 0 -14 -165 26 0 7 111 34 -111 26 0 4 111 33 -111 29 0 -53 165zm90 -118l-29 -4c3,-15 9,-26 17,-34 8,-9 19,-13 32,-13 14,0 24,5 31,13 7,9 10,19 10,31 0,5 0,11 -1,16 -1,6 -3,21 -6,45 -3,19 -4,33 -4,41 0,7 0,15 2,23l-28 0c-1,-6 -2,-12 -2,-18 -5,7 -9,13 -15,17 -5,4 -11,6 -17,6 -9,0 -16,-5 -22,-14 -6,-9 -8,-21 -8,-35 0,-15 3,-28 9,-38 7,-9 18,-15 34,-17 14,-2 23,-4 28,-6 1,-6 2,-11 2,-15 0,-5 -1,-9 -4,-12 -2,-3 -6,-5 -11,-5 -5,0 -9,2 -12,5 -3,3 -5,8 -6,14zm27 41c-2,1 -4,2 -7,2 -14,3 -24,7 -28,12 -3,4 -5,9 -5,15 0,6 1,10 4,14 2,3 5,5 9,5 5,0 9,-1 13,-5 3,-3 6,-7 8,-13 2,-5 4,-13 5,-24l1 -6zm68 -88l27 0 -4 31c10,-23 21,-35 32,-35 4,0 9,2 14,5l-12 37c-2,-2 -5,-3 -8,-3 -5,0 -10,3 -15,9 -5,6 -10,14 -12,23 -3,10 -6,26 -9,47l-7 51 -29 0 23 -165zm164 97l-73 0c0,1 0,3 0,4 0,11 2,20 6,27 4,6 9,10 15,10 10,0 17,-8 23,-23l26 7c-5,16 -12,28 -21,36 -8,8 -18,12 -28,12 -15,0 -26,-7 -35,-22 -9,-14 -14,-32 -14,-55 0,-23 4,-43 12,-61 11,-24 27,-36 48,-36 13,0 23,7 31,19 8,13 12,30 12,53 0,10 -1,20 -2,29zm-25 -27c0,-2 0,-4 0,-5 0,-12 -1,-21 -5,-28 -3,-6 -8,-9 -14,-9 -6,0 -12,4 -16,11 -5,7 -8,17 -10,31l45 0zm32 50l28 -7c2,9 5,15 9,19 4,4 9,6 15,6 7,0 12,-3 16,-7 3,-3 4,-7 4,-12 0,-3 -1,-5 -2,-8 -1,-2 -5,-5 -12,-8 -17,-9 -28,-16 -32,-21 -7,-8 -10,-19 -10,-32 0,-13 3,-24 9,-34 9,-13 22,-20 40,-20 13,0 24,4 31,12 7,8 11,18 13,32l-27 7c-1,-6 -3,-11 -6,-14 -5,-4 -10,-6 -16,-6 -6,0 -10,2 -13,5 -3,3 -4,7 -4,11 0,4 1,7 4,10 2,2 7,4 16,9 14,6 24,12 29,18 6,9 10,19 10,31 0,16 -5,30 -13,41 -9,12 -21,18 -36,18 -16,0 -28,-5 -36,-14 -9,-8 -14,-21 -17,-36z"/>
   <polygon class="fil8 str5" style="mask:url(#id0)" points="1,5 2349,15 2343,488 1,488 "/>
  </g>
 </g>
</svg>
